<?xml version="1.0" encoding="utf-8"?>
<!-- Generator: Adobe Illustrator 24.2.3, SVG Export Plug-In . SVG Version: 6.00 Build 0)  -->
<svg version="1.1" id="Warstwa_1" xmlns="http://www.w3.org/2000/svg" xmlns:xlink="http://www.w3.org/1999/xlink" x="0px" y="0px"
	 viewBox="0 0 360 110.5" style="enable-background:new 0 0 360 110.5;" xml:space="preserve">
<style type="text/css">
	.st0{fill:#7CCDDD;}
	.st1{opacity:0.7;}
	.st2{fill:#D6DEE5;}
	.st3{fill:#234FA1;}
	.st4{opacity:0.2;}
	.st5{fill:#173668;}
</style>
<g>
	<g>
		<g>
			<g>
				<polygon class="st0" points="110.5,102.4 110.5,110.5 102.4,110.5 55.3,63.4 63.4,55.3 				"/>
			</g>
		</g>
		<g class="st1">
			<g>
				<polygon class="st2" points="110.5,67.5 110.5,83.8 72.7,46 80.9,37.8 				"/>
			</g>
		</g>
		<g class="st1">
			<g>
				<polygon class="st2" points="110.5,32.9 110.5,49.2 90,28.7 98.2,20.5 				"/>
			</g>
		</g>
		<g>
			<g>
				<polygon class="st0" points="85.7,110.5 69.4,110.5 38.8,79.9 46.9,71.8 				"/>
			</g>
		</g>
		<g>
			<g>
				<polygon class="st0" points="51.1,110.5 34.8,110.5 21.5,97.2 29.6,89.1 				"/>
			</g>
		</g>
		<polygon class="st3" points="110.5,0 110.5,8.1 8.1,110.5 0,110.5 0,102.4 4.2,98.2 13.4,89.1 21.5,80.9 30.6,71.8 38.8,63.6 
			47.1,55.3 55.3,47.1 64.6,37.8 72.7,29.7 81.9,20.5 90,12.4 99.1,3.3 102.4,0 		"/>
		<g class="st4">
			<g>
				<g>
					
						<rect x="57.6" y="57.7" transform="matrix(0.7071 -0.7071 0.7071 0.7071 -26.2774 63.3847)" class="st3" width="11.5" height="11.4"/>
				</g>
			</g>
			<g>
				<g>
					
						<rect x="75.1" y="40.2" transform="matrix(0.7071 -0.7071 0.7071 0.7071 -8.7776 70.6045)" class="st3" width="11.5" height="11.4"/>
				</g>
			</g>
			<g>
				<g>
					
						<rect x="92.4" y="22.9" transform="matrix(0.7071 -0.7071 0.7071 0.7071 8.5223 77.7481)" class="st3" width="11.5" height="11.4"/>
				</g>
			</g>
			<g>
				<g>
					
						<rect x="41.1" y="74.2" transform="matrix(0.7071 -0.7071 0.7071 0.7071 -42.7772 56.5457)" class="st3" width="11.5" height="11.4"/>
				</g>
			</g>
			<g>
				<g>
					
						<rect x="23.8" y="91.5" transform="matrix(0.7071 -0.7071 0.7071 0.7071 -60.0771 49.4021)" class="st3" width="11.5" height="11.4"/>
				</g>
			</g>
		</g>
		<g>
			<g>
				<polygon class="st3" points="85.7,0 0,85.7 0,69.4 7.6,61.8 15.7,53.7 24.1,45.3 32.2,37.1 41.6,27.8 49.7,19.7 58.8,10.6 
					69.4,0 				"/>
			</g>
		</g>
		<g>
			<g>
				<polygon class="st3" points="51.1,0 0,51.1 0,34.8 6.8,28 15,19.9 24.3,10.6 34.8,0 				"/>
			</g>
		</g>
		<polygon class="st3" points="16.6,0 0,16.6 0,0 		"/>
	</g>
	<path class="st5" d="M196.1,44.7h-10.7l-7-11.1l-3.3,3.7v7.4h-8.9V14.6h8.9v12l10.1-12h10.3l-10.9,12.2L196.1,44.7z"/>
	<path class="st5" d="M221,16.1c2.5,1.3,4.5,3.2,5.9,5.6s2.1,5,2.1,8s-0.7,5.7-2.1,8c-1.4,2.4-3.4,4.3-5.9,5.6c-2.5,1.4-5.3,2-8.4,2
		c-3.1,0-5.9-0.7-8.4-2c-2.5-1.4-4.4-3.2-5.9-5.6c-1.4-2.4-2.1-5.1-2.1-8s0.7-5.6,2.1-8c1.4-2.4,3.4-4.2,5.9-5.6
		c2.5-1.3,5.3-2,8.4-2S218.5,14.7,221,16.1z M209.1,22.6c-1.1,0.7-2,1.7-2.7,2.9c-0.7,1.2-1,2.6-1,4.1s0.3,2.9,1,4.2s1.6,2.3,2.7,3
		c1.1,0.7,2.4,1.1,3.7,1.1s2.5-0.4,3.6-1.1c1.1-0.7,2-1.7,2.6-3c0.6-1.2,0.9-2.6,0.9-4.2c0-1.5-0.3-2.9-0.9-4.1
		c-0.6-1.2-1.5-2.2-2.6-2.9c-1.1-0.7-2.3-1.1-3.6-1.1C211.4,21.5,210.2,21.8,209.1,22.6z"/>
	<path class="st5" d="M252.7,14.6h8.1v30.1h-7.6L240.5,28v16.7h-8.2V14.6h7.6l12.7,16.8L252.7,14.6L252.7,14.6z"/>
	<path class="st5" d="M283.5,44.7l-4-8.1h-4.7v8.1h-8.9V14.6h14c4,0,7.2,0.9,9.4,2.8c2.2,1.9,3.3,4.5,3.3,7.9c0,2.2-0.4,4.1-1.3,5.7
		c-0.9,1.6-2.1,2.9-3.8,3.8l6.1,9.8h-10.1V44.7z M274.8,29.7h5.1c1.3,0,2.4-0.4,3.1-1.1s1.1-1.7,1.1-3.1c0-1.3-0.4-2.3-1.1-3
		s-1.8-1.1-3.1-1.1h-5.1V29.7z"/>
	<path class="st5" d="M319,44.7l-1.8-4.8h-12.1l-1.8,4.8h-9.2l12.8-30.1h9.2l12.4,30.1H319z M307.6,33.4h7.3l-3.6-9.8L307.6,33.4z"
		/>
	<path class="st5" d="M352.3,16.5c2.4,1.2,4.3,3,5.7,5.3c1.3,2.3,2,4.9,2,7.9s-0.7,5.6-2.1,7.9s-3.3,4.1-5.8,5.3s-5.4,1.9-8.6,1.9
		h-12.9V14.6h13.2C347,14.6,349.9,15.2,352.3,16.5z M349,35.5c1.3-1.5,1.9-3.4,1.9-5.8s-0.7-4.3-2-5.8s-3.1-2.2-5.2-2.2h-4.1v16h4.5
		C346.1,37.7,347.8,37,349,35.5z"/>
	<path class="st5" d="M177.2,88.7h12.6v7.5h-21.5V83.4l-3.9,2v-4.6l3.9-2V66.1h8.9v8.2l4.5-2.3v4.6l-4.5,2.3V88.7z"/>
	<path class="st5" d="M214.9,96.1l-1.8-4.8H201l-1.8,4.8H190L202.8,66h9.2l12.4,30.1H214.9z M203.5,84.8h7.3l-3.6-9.8L203.5,84.8z"
		/>
	<path class="st5" d="M247.5,67c1.7,0.6,3.1,1.5,4,2.6s1.4,2.5,1.4,4s-0.5,2.9-1.4,4c-0.9,1.2-2.2,2-3.7,2.4
		c1.8,0.4,3.3,1.3,4.4,2.6c1.1,1.4,1.7,3,1.7,5c0,1.7-0.5,3.2-1.5,4.4c-1,1.3-2.4,2.3-4.1,2.9s-3.9,1-6.2,1h-15.4V66.1h14.7
		C243.7,66.1,245.7,66.4,247.5,67z M243,77.2c0.5-0.5,0.8-1.1,0.8-1.9s-0.3-1.4-0.8-1.8s-1.2-0.7-2.1-0.7h-5.4v5.1h5.4
		C241.8,77.9,242.5,77.6,243,77.2z M243.6,88.7c0.7-0.5,1-1.2,1-2.1c0-0.8-0.3-1.5-1-2s-1.6-0.7-2.7-0.7h-5.4v5.4h5.4
		C242,89.5,242.9,89.2,243.6,88.7z"/>
	<path class="st5" d="M277.9,66.1h8.1v30.1h-7.6l-12.7-16.7v16.7h-8.2V66.1h7.6l12.7,16.8V66.1H277.9z"/>
	<path class="st5" d="M314.1,67.5c2.5,1.3,4.5,3.2,5.9,5.6s2.1,5,2.1,8s-0.7,5.7-2.1,8c-1.4,2.4-3.4,4.3-5.9,5.6
		c-2.5,1.4-5.3,2-8.4,2s-5.9-0.7-8.4-2c-2.5-1.4-4.4-3.2-5.9-5.6c-1.4-2.4-2.1-5.1-2.1-8s0.7-5.6,2.1-8s3.4-4.2,5.9-5.6
		c2.5-1.3,5.3-2,8.4-2C308.8,65.5,311.6,66.2,314.1,67.5z M302.2,74c-1.1,0.7-2,1.7-2.7,2.9c-0.7,1.2-1,2.6-1,4.1s0.3,2.9,1,4.2
		c0.7,1.3,1.6,2.3,2.7,3s2.4,1.1,3.7,1.1c1.3,0,2.5-0.4,3.6-1.1s2-1.7,2.6-3c0.6-1.2,0.9-2.6,0.9-4.2c0-1.5-0.3-2.9-0.9-4.1
		s-1.5-2.2-2.6-2.9c-1.1-0.7-2.3-1.1-3.6-1.1C304.5,72.9,303.3,73.3,302.2,74z"/>
</g>
</svg>
